<?xml version="1.0" encoding="utf-8"?>
<!-- Generator: Adobe Illustrator 23.0.1, SVG Export Plug-In . SVG Version: 6.00 Build 0)  -->
<svg version="1.1" id="Layer_1" xmlns="http://www.w3.org/2000/svg" xmlns:xlink="http://www.w3.org/1999/xlink" x="0px" y="0px"
	 viewBox="0 0 900 900" style="enable-background:new 0 0 900 900;" xml:space="preserve">
<style type="text/css">
	.st0{fill:#2A4E5C;}
	.st1{fill:#4F9AB8;}
	.st2{fill:none;stroke:#7DA7B8;stroke-width:6;stroke-miterlimit:10;}
	.st3{fill:#7DA7B8;}
	.st4{fill:#1B323B;}
	.st5{fill:#0F1C21;}
	.st6{fill:url(#SVGID_1_);}
	.st7{fill:#8CEAE3;}
	.st8{opacity:0.6;}
	.st9{opacity:0.7;fill:#FFFFFF;}
	.st10{fill:#F48967;}
	.st11{fill:none;stroke:#2C2E44;stroke-width:5.265;stroke-linecap:round;stroke-miterlimit:10;}
	.st12{fill:#23263F;}
	.st13{fill:#333656;}
	.st14{fill:#171929;}
	.st15{fill:#FFB287;}
	.st16{fill:#DCFFFC;}
	.st17{fill:#633127;}
	.st18{fill:#333557;}
	.st19{fill:#47231C;}
	.st20{fill:#152930;}
	.st21{fill:#24253D;}
	.st22{fill:#C0F9F6;}
	.st23{fill:#4A2021;}
	.st24{fill:#425C60;}
	.st25{fill:#547077;}
	.st26{fill:#BCCECC;}
	.st27{fill:#638F8F;}
	.st28{fill:none;stroke:#8DCCC9;stroke-width:4.2083;stroke-linecap:round;stroke-miterlimit:10;}
	.st29{fill:#B5927F;}
	.st30{fill:#E2F7F5;}
	.st31{fill:#FCBD9D;}
	.st32{fill:#FFFFFF;}
	.st33{fill:#57596E;}
	.st34{opacity:0.7;fill:url(#SVGID_2_);}
	.st35{opacity:0.7;fill:url(#SVGID_3_);}
	.st36{opacity:0.7;fill:url(#SVGID_4_);}
	.st37{opacity:0.7;fill:url(#SVGID_5_);}
	.st38{opacity:0.7;fill:url(#SVGID_6_);}
	.st39{opacity:0.7;fill:url(#SVGID_7_);}
	.st40{opacity:0.7;fill:url(#SVGID_8_);}
	.st41{opacity:0.7;fill:url(#SVGID_9_);}
	.st42{opacity:0.7;fill:url(#SVGID_10_);}
	.st43{opacity:0.7;fill:url(#SVGID_11_);}
	.st44{opacity:0.7;fill:url(#SVGID_12_);}
	.st45{opacity:0.7;fill:url(#SVGID_13_);}
	.st46{opacity:0.7;fill:url(#SVGID_14_);}
	.st47{opacity:0.7;fill:url(#SVGID_15_);}
	.st48{opacity:0.7;fill:url(#SVGID_16_);}
	.st49{opacity:0.7;fill:url(#SVGID_17_);}
	.st50{opacity:0.7;fill:url(#SVGID_18_);}
	.st51{opacity:0.7;fill:url(#SVGID_19_);}
	.st52{opacity:0.7;fill:url(#SVGID_20_);}
	.st53{opacity:0.7;fill:url(#SVGID_21_);}
	.st54{opacity:0.7;fill:url(#SVGID_22_);}
	.st55{opacity:0.7;fill:url(#SVGID_23_);}
	.st56{opacity:0.7;fill:url(#SVGID_24_);}
	.st57{opacity:0.7;fill:url(#SVGID_25_);}
	.st58{opacity:0.7;fill:url(#SVGID_26_);}
	.st59{opacity:0.7;fill:url(#SVGID_27_);}
	.st60{opacity:0.7;fill:url(#SVGID_28_);}
	.st61{opacity:0.7;fill:url(#SVGID_29_);}
	.st62{opacity:0.7;fill:url(#SVGID_30_);}
	.st63{opacity:0.7;fill:url(#SVGID_31_);}
	.st64{opacity:0.7;fill:url(#SVGID_32_);}
	.st65{opacity:0.7;fill:url(#SVGID_33_);}
	.st66{opacity:0.7;fill:url(#SVGID_34_);}
	.st67{opacity:0.7;fill:url(#SVGID_35_);}
	.st68{opacity:0.7;fill:url(#SVGID_36_);}
	.st69{opacity:0.7;fill:url(#SVGID_37_);}
	.st70{opacity:0.7;fill:url(#SVGID_38_);}
	.st71{opacity:0.7;fill:url(#SVGID_39_);}
	.st72{opacity:0.7;fill:url(#SVGID_40_);}
	.st73{opacity:0.7;fill:url(#SVGID_41_);}
	.st74{opacity:0.7;fill:url(#SVGID_42_);}
	.st75{opacity:0.7;fill:url(#SVGID_43_);}
	.st76{opacity:0.7;fill:url(#SVGID_44_);}
	.st77{opacity:0.7;fill:url(#SVGID_45_);}
	.st78{opacity:0.7;fill:url(#SVGID_46_);}
	.st79{opacity:0.7;fill:url(#SVGID_47_);}
	.st80{opacity:0.7;fill:url(#SVGID_48_);}
	.st81{opacity:0.7;fill:url(#SVGID_49_);}
	.st82{opacity:0.7;fill:url(#SVGID_50_);}
	.st83{opacity:0.7;fill:url(#SVGID_51_);}
	.st84{opacity:0.7;fill:url(#SVGID_52_);}
	.st85{fill:#6B4B46;}
	.st86{fill:#C9D1D1;}
	.st87{fill:#1B333D;}
	.st88{fill:#404E54;}
	.st89{fill:none;stroke:#E28156;stroke-width:2;stroke-linecap:round;stroke-miterlimit:10;}
	.st90{fill:#C9AE9F;}
	.st91{fill:#C3E8E6;}
	.st92{opacity:0.26;fill:#FFFFFF;}
</style>
<path class="st0" d="M346.17,137.93c0,5.19-4.18,9.4-9.33,9.4h-46.71c-5.15,0-9.33-4.21-9.33-9.4l0,0c0-5.19,4.18-9.4,9.33-9.4
	h46.71C341.99,128.54,346.17,132.74,346.17,137.93L346.17,137.93z"/>
<path class="st1" d="M776.41,383.37h-8.61v-46.63h8.61c3.94,0,7.13,3.19,7.13,7.13v32.38C783.54,380.18,780.35,383.37,776.41,383.37
	z"/>
<path class="st2" d="M779.34,360.05h12.24c4.09,0,8.19,1.56,11.31,4.68c3.12,3.12,4.68,7.22,4.68,11.31v260.82
	c0,14.79,5.64,29.59,16.93,40.87c11.29,11.29,26.08,16.93,40.87,16.93H900"/>
<path class="st3" d="M787.2,352.45h-5.87c-1.89,0-3.42,1.53-3.42,3.42v8.26c0,1.89,1.53,3.42,3.42,3.42h6.19
	c4.25,0,7.68-3.51,7.55-7.79C794.94,355.63,791.34,352.45,787.2,352.45z"/>
<path class="st4" d="M340.64,137.93c0,5.19-4.18,9.4-9.33,9.4H284.6c-5.15,0-9.33-4.21-9.33-9.4l0,0c0-5.19,4.18-9.4,9.33-9.4h46.71
	C336.46,128.54,340.64,132.74,340.64,137.93L340.64,137.93z"/>
<path class="st4" d="M238.26,581.84c-11.45,0-22.9-4.39-31.63-13.2c-8.74-8.8-13.1-20.33-13.1-31.86V183.33
	c0-11.53,4.37-23.06,13.1-31.86c8.74-8.8,20.18-13.2,31.63-13.2h477.35c11.45,0,22.9,4.4,31.63,13.2c8.74,8.8,13.1,20.33,13.1,31.86
	v353.45c0,11.53-4.37,23.06-13.1,31.86c-8.73,8.8-20.19,13.2-31.63,13.2H238.26z"/>
<path class="st5" d="M227.29,581.84c-11.45,0-22.9-4.39-31.63-13.2c-8.74-8.8-13.1-20.33-13.1-31.86V183.33
	c0-11.53,4.37-23.06,13.1-31.86c8.74-8.8,20.18-13.2,31.63-13.2h477.35c11.45,0,22.9,4.4,31.63,13.2c8.74,8.8,13.1,20.33,13.1,31.86
	v353.45c0,11.53-4.37,23.06-13.1,31.86c-8.73,8.8-20.19,13.2-31.63,13.2H227.29z"/>
<path class="st3" d="M768.01,383.37h-13.14v-46.63h13.14c3.94,0,7.13,3.19,7.13,7.13v32.38
	C775.14,380.18,771.95,383.37,768.01,383.37z"/>
<linearGradient id="SVGID_1_" gradientUnits="userSpaceOnUse" x1="456.28" y1="708.1846" x2="463.3555" y2="168.9796">
	<stop  offset="0" style="stop-color:#000000"/>
	<stop  offset="0.9679" style="stop-color:#A3D8D5"/>
</linearGradient>
<polygon class="st6" points="216.1,172.07 60.63,696.51 852.24,696.51 715.83,172.07 "/>
<rect x="216.1" y="172.07" class="st7" width="499.73" height="375.97"/>
<g class="st8">
	<path class="st9" d="M237.37,368.28c0,1.53-1.23,2.76-2.74,2.76c-1.52,0-2.74-1.24-2.74-2.76c0-1.53,1.23-2.76,2.74-2.76
		C236.14,365.52,237.37,366.75,237.37,368.28z"/>
	<path class="st9" d="M250.4,368.28c0,1.53-1.23,2.76-2.74,2.76c-1.52,0-2.74-1.24-2.74-2.76c0-1.53,1.23-2.76,2.74-2.76
		C249.17,365.52,250.4,366.75,250.4,368.28z"/>
	<path class="st9" d="M263.43,368.28c0,1.53-1.23,2.76-2.74,2.76c-1.52,0-2.74-1.24-2.74-2.76c0-1.53,1.23-2.76,2.74-2.76
		C262.21,365.52,263.43,366.75,263.43,368.28z"/>
	<path class="st9" d="M276.47,368.28c0,1.53-1.23,2.76-2.74,2.76c-1.52,0-2.74-1.24-2.74-2.76c0-1.53,1.23-2.76,2.74-2.76
		C275.24,365.52,276.47,366.75,276.47,368.28z"/>
	<path class="st9" d="M289.5,368.28c0,1.53-1.23,2.76-2.74,2.76c-1.52,0-2.74-1.24-2.74-2.76c0-1.53,1.23-2.76,2.74-2.76
		C288.27,365.52,289.5,366.75,289.5,368.28z"/>
	<path class="st9" d="M302.54,368.28c0,1.53-1.23,2.76-2.74,2.76c-1.52,0-2.74-1.24-2.74-2.76c0-1.53,1.23-2.76,2.74-2.76
		C301.31,365.52,302.54,366.75,302.54,368.28z"/>
	<path class="st9" d="M315.57,368.28c0,1.53-1.23,2.76-2.74,2.76c-1.52,0-2.74-1.24-2.74-2.76c0-1.53,1.23-2.76,2.74-2.76
		C314.34,365.52,315.57,366.75,315.57,368.28z"/>
	<path class="st9" d="M328.6,368.28c0,1.53-1.23,2.76-2.74,2.76c-1.52,0-2.74-1.24-2.74-2.76c0-1.53,1.23-2.76,2.74-2.76
		C327.37,365.52,328.6,366.75,328.6,368.28z"/>
	<path class="st9" d="M341.64,368.28c0,1.53-1.23,2.76-2.74,2.76c-1.52,0-2.74-1.24-2.74-2.76c0-1.53,1.23-2.76,2.74-2.76
		C340.41,365.52,341.64,366.75,341.64,368.28z"/>
	<path class="st9" d="M354.67,368.28c0,1.53-1.23,2.76-2.74,2.76c-1.52,0-2.74-1.24-2.74-2.76c0-1.53,1.23-2.76,2.74-2.76
		C353.44,365.52,354.67,366.75,354.67,368.28z"/>
	<path class="st9" d="M367.7,368.28c0,1.53-1.23,2.76-2.74,2.76c-1.52,0-2.74-1.24-2.74-2.76c0-1.53,1.23-2.76,2.74-2.76
		C366.47,365.52,367.7,366.75,367.7,368.28z"/>
	<path class="st9" d="M380.74,368.28c0,1.53-1.23,2.76-2.74,2.76c-1.52,0-2.74-1.24-2.74-2.76c0-1.53,1.23-2.76,2.74-2.76
		C379.51,365.52,380.74,366.75,380.74,368.28z"/>
	<path class="st9" d="M393.77,368.28c0,1.53-1.23,2.76-2.74,2.76c-1.52,0-2.74-1.24-2.74-2.76c0-1.53,1.23-2.76,2.74-2.76
		C392.54,365.52,393.77,366.75,393.77,368.28z"/>
	<path class="st9" d="M406.8,368.28c0,1.53-1.23,2.76-2.74,2.76c-1.52,0-2.74-1.24-2.74-2.76c0-1.53,1.23-2.76,2.74-2.76
		C405.57,365.52,406.8,366.75,406.8,368.28z"/>
	<path class="st9" d="M419.84,368.28c0,1.53-1.23,2.76-2.74,2.76c-1.52,0-2.74-1.24-2.74-2.76c0-1.53,1.23-2.76,2.74-2.76
		C418.61,365.52,419.84,366.75,419.84,368.28z"/>
	<path class="st9" d="M432.87,368.28c0,1.53-1.23,2.76-2.74,2.76c-1.52,0-2.74-1.24-2.74-2.76c0-1.53,1.23-2.76,2.74-2.76
		C431.64,365.52,432.87,366.75,432.87,368.28z"/>
	<path class="st9" d="M445.9,368.28c0,1.53-1.23,2.76-2.74,2.76c-1.52,0-2.74-1.24-2.74-2.76c0-1.53,1.23-2.76,2.74-2.76
		C444.67,365.52,445.9,366.75,445.9,368.28z"/>
</g>
<g class="st8">
	<path class="st9" d="M224.27,354.28c0,1.53-1.23,2.76-2.74,2.76c-1.52,0-2.74-1.24-2.74-2.76c0-1.53,1.23-2.76,2.74-2.76
		C223.04,351.51,224.27,352.75,224.27,354.28z"/>
	<path class="st9" d="M237.3,354.28c0,1.53-1.23,2.76-2.74,2.76c-1.52,0-2.74-1.24-2.74-2.76c0-1.53,1.23-2.76,2.74-2.76
		C236.07,351.51,237.3,352.75,237.3,354.28z"/>
	<path class="st9" d="M250.34,354.28c0,1.53-1.23,2.76-2.74,2.76c-1.52,0-2.74-1.24-2.74-2.76c0-1.53,1.23-2.76,2.74-2.76
		C249.11,351.51,250.34,352.75,250.34,354.28z"/>
	<path class="st9" d="M263.37,354.28c0,1.53-1.23,2.76-2.74,2.76c-1.52,0-2.74-1.24-2.74-2.76c0-1.53,1.23-2.76,2.74-2.76
		C262.14,351.51,263.37,352.75,263.37,354.28z"/>
	<path class="st9" d="M276.4,354.28c0,1.53-1.23,2.76-2.74,2.76c-1.52,0-2.74-1.24-2.74-2.76c0-1.53,1.23-2.76,2.74-2.76
		C275.17,351.51,276.4,352.75,276.4,354.28z"/>
	<path class="st9" d="M289.44,354.28c0,1.53-1.23,2.76-2.74,2.76c-1.52,0-2.74-1.24-2.74-2.76c0-1.53,1.23-2.76,2.74-2.76
		C288.21,351.51,289.44,352.75,289.44,354.28z"/>
	<path class="st9" d="M302.47,354.28c0,1.53-1.23,2.76-2.74,2.76c-1.52,0-2.74-1.24-2.74-2.76c0-1.53,1.23-2.76,2.74-2.76
		C301.24,351.51,302.47,352.75,302.47,354.28z"/>
	<path class="st9" d="M315.5,354.28c0,1.53-1.23,2.76-2.74,2.76c-1.52,0-2.74-1.24-2.74-2.76c0-1.53,1.23-2.76,2.74-2.76
		C314.27,351.51,315.5,352.75,315.5,354.28z"/>
	<path class="st9" d="M328.54,354.28c0,1.53-1.23,2.76-2.74,2.76c-1.52,0-2.74-1.24-2.74-2.76c0-1.53,1.23-2.76,2.74-2.76
		C327.31,351.51,328.54,352.75,328.54,354.28z"/>
	<path class="st9" d="M341.57,354.28c0,1.53-1.23,2.76-2.74,2.76c-1.52,0-2.74-1.24-2.74-2.76c0-1.53,1.23-2.76,2.74-2.76
		C340.34,351.51,341.57,352.75,341.57,354.28z"/>
	<path class="st9" d="M354.6,354.28c0,1.53-1.23,2.76-2.74,2.76c-1.51,0-2.74-1.24-2.74-2.76c0-1.53,1.23-2.76,2.74-2.76
		C353.37,351.51,354.6,352.75,354.6,354.28z"/>
	<path class="st9" d="M367.64,354.28c0,1.53-1.23,2.76-2.74,2.76c-1.52,0-2.74-1.24-2.74-2.76c0-1.53,1.23-2.76,2.74-2.76
		C366.41,351.51,367.64,352.75,367.64,354.28z"/>
	<path class="st9" d="M380.67,354.28c0,1.53-1.23,2.76-2.74,2.76c-1.51,0-2.74-1.24-2.74-2.76c0-1.53,1.23-2.76,2.74-2.76
		C379.44,351.51,380.67,352.75,380.67,354.28z"/>
	<path class="st9" d="M393.7,354.28c0,1.53-1.23,2.76-2.74,2.76c-1.51,0-2.74-1.24-2.74-2.76c0-1.53,1.23-2.76,2.74-2.76
		C392.47,351.51,393.7,352.75,393.7,354.28z"/>
	<path class="st9" d="M406.74,354.28c0,1.53-1.23,2.76-2.74,2.76c-1.51,0-2.74-1.24-2.74-2.76c0-1.53,1.23-2.76,2.74-2.76
		C405.51,351.51,406.74,352.75,406.74,354.28z"/>
	<path class="st9" d="M419.77,354.28c0,1.53-1.23,2.76-2.74,2.76c-1.51,0-2.74-1.24-2.74-2.76c0-1.53,1.23-2.76,2.74-2.76
		C418.54,351.51,419.77,352.75,419.77,354.28z"/>
	<path class="st9" d="M432.8,354.28c0,1.53-1.23,2.76-2.74,2.76c-1.51,0-2.74-1.24-2.74-2.76c0-1.53,1.23-2.76,2.74-2.76
		C431.57,351.51,432.8,352.75,432.8,354.28z"/>
</g>
<g>
	<path class="st10" d="M314.33,504.84v21.56c0,1.3-1.04,2.34-2.33,2.34c-0.9,0-1.67-0.51-2.06-1.27c-0.38,0.76-1.16,1.28-2.06,1.28
		c-1.28,0-2.32-1.05-2.32-2.35c0,1.3-1.04,2.34-2.33,2.34c-0.91,0-1.69-0.53-2.07-1.29c-0.38,0.76-1.16,1.29-2.07,1.29
		c-0.76,0-1.43-0.36-1.85-0.92c-0.3-0.39-0.48-0.88-0.48-1.42v-21.56c0-1.3,1.04-2.35,2.33-2.35c0.91,0,1.69,0.54,2.07,1.3
		c0.38-0.76,1.16-1.3,2.07-1.3c1.29,0,2.33,1.05,2.33,2.35c0-1.3,1.04-2.35,2.32-2.35c0.91,0,1.68,0.52,2.06,1.28
		c0.39-0.76,1.16-1.28,2.06-1.28C313.29,502.49,314.33,503.54,314.33,504.84z"/>
	<path class="st11" d="M290.4,532.57L290.4,532.57c0-6.81,5.48-12.33,12.24-12.33h1.75c6.76,0,12.24,5.52,12.24,12.33l0,0"/>
	<g>
		<polygon class="st12" points="326.65,603.32 326.65,532.58 276.33,532.58 274.43,559.29 276.34,559.29 276.34,603.32 		"/>
	</g>
	<path class="st13" d="M285.13,594.47c0,4.89-3.93,8.85-8.78,8.85l0,0c-4.86,0-8.79-3.96-8.79-8.85v-53.05
		c0-4.89,3.93-8.85,8.79-8.85l0,0c4.85,0,8.78,3.96,8.78,8.85V594.47z"/>
	<path class="st10" d="M314.33,520.39v6.01c0,1.3-1.04,2.34-2.33,2.34c-0.9,0-1.67-0.51-2.06-1.27c-0.38,0.76-1.16,1.28-2.06,1.28
		c-1.28,0-2.32-1.05-2.32-2.35c0,1.3-1.04,2.34-2.33,2.34c-0.91,0-1.69-0.53-2.07-1.29c-0.38,0.76-1.16,1.29-2.07,1.29
		c-0.76,0-1.43-0.36-1.85-0.92v-6.03c0-1.29,1.04-2.34,2.32-2.34c0.91,0,1.69,0.53,2.07,1.3c0.39-0.77,1.17-1.3,2.07-1.3
		c1.29,0,2.33,1.05,2.33,2.34c0-1.29,1.05-2.34,2.33-2.34c0.9,0,1.67,0.52,2.06,1.27c0.38-0.75,1.16-1.27,2.06-1.27
		C313.24,519.45,313.91,519.82,314.33,520.39z"/>
	<rect x="305.69" y="532.58" class="st14" width="7.97" height="70.75"/>
</g>
<g class="st8">
	<path class="st9" d="M254.81,381.86c0,1.53-1.23,2.76-2.74,2.76c-1.52,0-2.74-1.24-2.74-2.76c0-1.53,1.23-2.76,2.74-2.76
		C253.59,379.09,254.81,380.33,254.81,381.86z"/>
	<path class="st9" d="M267.85,381.86c0,1.53-1.23,2.76-2.74,2.76c-1.52,0-2.74-1.24-2.74-2.76c0-1.53,1.23-2.76,2.74-2.76
		C266.62,379.09,267.85,380.33,267.85,381.86z"/>
	<path class="st9" d="M280.88,381.86c0,1.53-1.23,2.76-2.74,2.76c-1.52,0-2.74-1.24-2.74-2.76c0-1.53,1.23-2.76,2.74-2.76
		C279.65,379.09,280.88,380.33,280.88,381.86z"/>
	<path class="st9" d="M293.91,381.86c0,1.53-1.23,2.76-2.74,2.76c-1.52,0-2.74-1.24-2.74-2.76c0-1.53,1.23-2.76,2.74-2.76
		C292.69,379.09,293.91,380.33,293.91,381.86z"/>
	<path class="st9" d="M306.95,381.86c0,1.53-1.23,2.76-2.74,2.76c-1.52,0-2.74-1.24-2.74-2.76c0-1.53,1.23-2.76,2.74-2.76
		C305.72,379.09,306.95,380.33,306.95,381.86z"/>
	<path class="st9" d="M319.98,381.86c0,1.53-1.23,2.76-2.74,2.76c-1.52,0-2.74-1.24-2.74-2.76c0-1.53,1.23-2.76,2.74-2.76
		C318.75,379.09,319.98,380.33,319.98,381.86z"/>
	<path class="st9" d="M333.01,381.86c0,1.53-1.23,2.76-2.74,2.76c-1.51,0-2.74-1.24-2.74-2.76c0-1.53,1.23-2.76,2.74-2.76
		C331.79,379.09,333.01,380.33,333.01,381.86z"/>
	<path class="st9" d="M346.05,381.86c0,1.53-1.23,2.76-2.74,2.76c-1.51,0-2.74-1.24-2.74-2.76c0-1.53,1.23-2.76,2.74-2.76
		C344.82,379.09,346.05,380.33,346.05,381.86z"/>
	<path class="st9" d="M359.08,381.86c0,1.53-1.23,2.76-2.74,2.76c-1.51,0-2.74-1.24-2.74-2.76c0-1.53,1.23-2.76,2.74-2.76
		C357.85,379.09,359.08,380.33,359.08,381.86z"/>
	<path class="st9" d="M372.11,381.86c0,1.53-1.23,2.76-2.74,2.76c-1.51,0-2.74-1.24-2.74-2.76c0-1.53,1.23-2.76,2.74-2.76
		C370.89,379.09,372.11,380.33,372.11,381.86z"/>
	<path class="st9" d="M385.15,381.86c0,1.53-1.23,2.76-2.74,2.76c-1.51,0-2.74-1.24-2.74-2.76c0-1.53,1.23-2.76,2.74-2.76
		C383.92,379.09,385.15,380.33,385.15,381.86z"/>
	<path class="st9" d="M398.18,381.86c0,1.53-1.23,2.76-2.74,2.76c-1.51,0-2.74-1.24-2.74-2.76c0-1.53,1.23-2.76,2.74-2.76
		C396.95,379.09,398.18,380.33,398.18,381.86z"/>
	<path class="st9" d="M411.21,381.86c0,1.53-1.23,2.76-2.74,2.76c-1.51,0-2.74-1.24-2.74-2.76c0-1.53,1.23-2.76,2.74-2.76
		C409.99,379.09,411.21,380.33,411.21,381.86z"/>
	<path class="st9" d="M424.25,381.86c0,1.53-1.23,2.76-2.74,2.76c-1.51,0-2.74-1.24-2.74-2.76c0-1.53,1.23-2.76,2.74-2.76
		C423.02,379.09,424.25,380.33,424.25,381.86z"/>
	<path class="st9" d="M437.28,381.86c0,1.53-1.23,2.76-2.74,2.76c-1.51,0-2.74-1.24-2.74-2.76c0-1.53,1.23-2.76,2.74-2.76
		C436.05,379.09,437.28,380.33,437.28,381.86z"/>
	<path class="st9" d="M450.31,381.86c0,1.53-1.23,2.76-2.74,2.76c-1.51,0-2.74-1.24-2.74-2.76c0-1.53,1.23-2.76,2.74-2.76
		C449.09,379.09,450.31,380.33,450.31,381.86z"/>
	<path class="st9" d="M463.35,381.86c0,1.53-1.23,2.76-2.74,2.76c-1.51,0-2.74-1.24-2.74-2.76c0-1.53,1.23-2.76,2.74-2.76
		C462.12,379.09,463.35,380.33,463.35,381.86z"/>
</g>
<path class="st12" d="M320.3,504.84V356.13c0-7.61-5.76-13.77-12.87-13.77c-7.11,0-12.87,6.16-12.87,13.77v148.71H320.3z"/>
<path class="st15" d="M305.76,519.85c0.12,1.14,1.12,1.97,2.26,1.85l0,0c1.13-0.12,1.95-1.14,1.83-2.27l-0.75-7.35
	c-0.12-1.14-1.13-1.97-2.26-1.85l0,0c-1.13,0.12-1.95,1.14-1.84,2.27L305.76,519.85z"/>
<path class="st16" d="M372.67,260.55v39.64c0,11.79-7.29,21.86-17.58,25.87c-3.09,1.21-6.45,1.88-9.97,1.88
	c-7.6,0-14.49-3.11-19.48-8.12c-3.6-3.64-6.2-8.27-7.37-13.44c-0.46-1.99-0.69-4.06-0.69-6.18v-39.64c0-8.69,3.96-16.45,10.18-21.54
	c0-0.01,0.01-0.01,0.02-0.01c3.01-1.19,6.21-2.01,9.53-2.37c1.34-0.15,2.69-0.23,4.07-0.23c13.03,0,23.78,5.82,29.89,15.38
	C372.18,254.53,372.67,257.48,372.67,260.55z"/>
<path class="st15" d="M368.58,260.55v39.64c0,11.79-7.29,21.86-17.59,25.87c-3.09,1.21-6.45,1.88-9.96,1.88
	c-7.6,0-12.47-6.26-17.46-11.27c-3.6-3.64-8.23-5.12-9.39-10.3c-0.46-1.99-0.69-4.06-0.69-6.18v-39.64
	c0-8.69,3.96-16.45,10.18-21.54c0-0.01,0.01-0.01,0.02-0.01c3.01-1.19,6.2-2.01,9.53-2.37c1.33-0.15,2.69-0.23,4.07-0.23
	c13.03,0,23.78,5.82,29.89,15.38C368.09,254.53,368.58,257.48,368.58,260.55z"/>
<path class="st10" d="M348.6,336.03c0,4.35-5.84,7.88-13.04,7.88l0,0c-7.2,0-13.03-3.53-13.03-7.88v-24.45
	c0-4.36,5.83-7.89,13.03-7.89l0,0c7.2,0,13.04,3.53,13.04,7.89V336.03z"/>
<polygon class="st17" points="324.81,668.88 306.58,668.88 306.58,680.54 324.87,679.02 "/>
<rect x="346.42" y="667.35" class="st17" width="17.87" height="11.67"/>
<path class="st16" d="M372.86,480.85v194.64h-26.15V524.33c0-3.75-5.01-6.79-8.73-6.79c-1.17,0-2.27,0.3-3.22,0.83
	c-0.57,0.31-1.09,0.71-1.54,1.16c-1.23,1.23-1.98,2.93-1.98,4.8v151.16h-24.67V480.85H372.86z"/>
<path class="st18" d="M366.43,480.85v194.64h-21.71V524.33c0-3.75-3.02-6.79-6.74-6.79c-1.17,0,0.94-0.53,0,0
	c-0.96-0.53-5.27,0-6.43,0c-1.87,0-3.54,0.76-4.75,1.99c-1.23,1.23-1.99,2.93-1.99,4.8v151.16h-20.35V480.85H366.43z"/>
<path class="st10" d="M363.14,251.78c-6.11-9.55-16.86-15.38-29.89-15.38c-1.38,0-2.73,0.08-4.07,0.23
	c-3.32,0.36-6.52,1.17-9.53,2.37c-0.01,0-0.01,0-0.01,0.01c-6.21,5.08-10.18,12.85-10.18,21.54v33.79h12.95v29.39
	c4.24,2.67,9.24,4.22,14.6,4.22c3.51,0,6.87-0.66,9.96-1.88c10.29-4.02,17.59-14.09,17.59-25.87v-39.64
	C364.55,257.48,364.06,254.53,363.14,251.78z"/>
<path class="st19" d="M340.64,282.59c0-0.23,0-0.42,0-0.42S340.64,282.36,340.64,282.59c0,0.23,0,0.41,0,0.41
	S340.64,282.82,340.64,282.59z"/>
<path class="st20" d="M396.86,692.58v5.83c-0.04,0.65-0.19,1.39-0.38,2.08H56.22c-2.2,0-3.98-1.78-3.98-3.98
	c0-2.19,1.78-3.97,3.98-3.97h340.21C396.58,692.54,396.72,692.56,396.86,692.58z"/>
<path class="st18" d="M378.23,350.99L374.5,487c0,0.3,0.51,14.69,0.5,14.98l-70.56-0.44c-0.01-0.29-0.03-0.59-0.03-0.89
	l-1.37-124.72l-0.55,0.13c0,0-7-14.98-3.93-28.4c3-5.82,13.87-8.78,22.59-10.26c6.49-1.09,11.79-1.36,11.79-1.36l-0.07,1.5
	c2.51-0.53,5.1-0.81,7.76-0.81c4.78,0,9.35,0.9,13.56,2.54c0.01,0.01,4.11,0.63,9.02,2.32
	C368.75,343.47,375.31,345.81,378.23,350.99z"/>
<path class="st21" d="M307.79,679.02h10.94h6.14c0.59,2.91,9.2,4.69,12.44,5.1l19.66,3.65c0.51,1.11,0.8,2.35,0.8,3.65
	c0,4.83-5.01,5.1-9.81,5.1h-16.85h-6.14l-4.32-4.82v4.82h-12.86c-4.8,0-5.46,0.34-5.46-4.49C302.34,687.19,303,679.02,307.79,679.02
	z"/>
<rect x="301.64" y="691.69" width="19.01" height="4.82"/>
<rect x="324.87" y="693.48" width="32.39" height="3.03"/>
<polygon points="324.87,693.48 320.65,691.69 324.87,696.51 "/>
<path class="st22" d="M347.22,679.02h10.94h6.14c0.59,2.91,9.2,4.69,12.45,5.1l19.66,3.65c0.51,1.11,0.8,2.35,0.8,3.65
	c0,4.83-5.02,5.1-9.81,5.1h-16.85h-6.14l-4.33-4.82v4.82h-12.86c-4.79,0-5.45,0.34-5.45-4.49
	C341.77,687.19,342.43,679.02,347.22,679.02z"/>
<path class="st18" d="M347.22,679.02h10.94h4.02c-0.81,7.81,34.5,10.44,34.5,10.44c0.51,1.11,0.52,0.65,0.52,1.96
	c0,4.83-5.02,5.1-9.81,5.1h-16.85h-6.14l-4.33-4.82v4.82h-12.86c-4.79,0-5.45,0.34-5.45-4.49
	C341.77,687.19,342.43,679.02,347.22,679.02z"/>
<rect x="341.06" y="691.69" width="19.01" height="4.82"/>
<rect x="364.3" y="693.48" width="32.39" height="3.03"/>
<polygon points="364.3,693.48 360.07,691.69 364.3,696.51 "/>
<path class="st23" d="M339.01,232.13c-18.59,0-33.07,10.87-35.94,29.37c-1.62,10.45-3.42,37.83,8.25,51.21
	c3.7,4.24,9.19,5.96,14.4,5.96h14.5c3.28,0,6.56-1.25,9.06-3.75c2.5-2.5,3.75-5.78,3.75-9.06v-20.68h11.51v-24.64l8.78-2.04
	l-2.33-1.18C371,238.61,357.6,232.13,339.01,232.13z"/>
<path class="st24" d="M601.23,548.04l0-59.81c0-1.88,0.87-3.57,2.28-4.8c1.4-1.23,3.34-1.99,5.48-1.99c4.3,0,7.77,3.04,7.77,6.79
	l0,59.81h32.44l0-103.29h-78.83l0,103.29H601.23z"/>
<path class="st16" d="M376.71,257.65l-0.09,0.86l-5.4,0.91l0.02-0.22c0-18.72-19.11-25.51-37.69-25.51c-2.97,0-5.86,0.29-8.6,0.86
	c4.28-1.59,9.04-2.42,14.07-2.42C357.6,232.13,376.71,238.93,376.71,257.65z"/>
<path class="st25" d="M654.96,340.3v127.86h-93.03V339.7c0-2.33-0.95-17.87,6.27-22.08c4.43-3.18,10.68-5.56,17.83-7.12
	c4.75-1.04,9.89-1.73,15.16-2.05c2.83-0.18,5.68-0.25,8.54-0.21c5.24,0.06,10.44,0.46,15.36,1.22c9.29,1.42,17.55,4.09,23.04,8
	C654.96,322.72,654.96,337.79,654.96,340.3z"/>
<polygon class="st26" points="591.5,319.5 609,387 624,319.5 "/>
<path class="st10" d="M362.38,284.35c0,2.6-2.09,4.7-4.67,4.7l0,0c-2.58,0-4.66-2.1-4.66-4.7v-2.69c0-2.6,2.09-4.7,4.66-4.7l0,0
	c2.58,0,4.67,2.1,4.67,4.7V284.35z"/>
<path class="st18" d="M351.94,338.48c-12.53,1.58-24.54,1.52-36.08-0.02l3.13-7.95c8.69,1.84,20.91,1.52,29.6,0L351.94,338.48z"/>
<path class="st12" d="M346.71,450.04c0,2.78-2.24,5.04-5,5.04h-25.47c-2.76,0-5-2.25-5-5.04l0,0c0-2.78,2.24-5.04,5-5.04h25.47
	C344.47,445,346.71,447.25,346.71,450.04L346.71,450.04z"/>
<g>
	<g>
		<path class="st27" d="M501.7,421.96c0.82-0.01,1.63-0.34,2.25-0.98c0.36-0.37,0.61-0.8,0.75-1.26l9.71-0.14l-0.25-17.84l-9.6,0.14
			c-0.04-0.36-0.15-0.71-0.31-1.05c-0.23-0.46-0.55-0.85-0.92-1.15l-7.1-5.68c-0.43-0.31-0.92-0.45-1.4-0.44
			c-0.05,0-0.1,0-0.14,0.01c-0.05,0-0.1,0-0.15,0l-7.2,0.1c-1.31,0.02-2.35,1.1-2.33,2.42c0.02,1.32,1.09,2.37,2.4,2.35l6.37-0.09
			l1.54,2.48l-4.9,0.07l0,0l-13.94,0.2c-1.3,0.02-2.35,1.1-2.33,2.42c0.02,1.31,1.09,2.37,2.4,2.35l13.95-0.2l0.01,0.74l-15.07,0.22
			c-1.3,0.02-2.35,1.1-2.33,2.42c0.02,1.31,1.1,2.37,2.4,2.35l15.07-0.21l0.01,0.72l-13.12,0.19c-1.31,0.02-2.35,1.1-2.33,2.42
			c0.02,1.32,1.09,2.37,2.4,2.35l13.11-0.19l0.01,0.72l-10.95,0.16c-1.31,0.02-2.35,1.1-2.34,2.42c0.02,1.31,1.09,2.37,2.4,2.35
			l10.95-0.16l0,0L501.7,421.96z"/>
		
			<rect x="508.32" y="401.78" transform="matrix(0.9999 -0.014 0.014 0.9999 -5.6828 7.1769)" class="st27" width="5.96" height="17.84"/>
	</g>
	<g>
		<path class="st25" d="M556.83,339.45V366c0,10.77-5.05,20.39-12.88,26.57c-0.19,0.15-0.38,0.3-0.58,0.44
			c-0.22,0.16-0.43,0.32-0.65,0.48c-0.22,0.16-0.44,0.32-0.67,0.46c-0.17,0.12-0.35,0.24-0.53,0.36c-0.3,0.2-0.61,0.39-0.92,0.58
			c-0.28,0.17-0.57,0.34-0.86,0.5c-0.29,0.17-0.58,0.33-0.88,0.49c-0.15,0.08-0.29,0.15-0.44,0.23c-0.19,0.09-0.37,0.18-0.56,0.27
			c-0.33,0.17-0.66,0.32-1,0.47c-0.29,0.13-0.59,0.26-0.9,0.39c-0.37,0.15-0.74,0.29-1.11,0.43c-0.21,0.08-0.42,0.15-0.63,0.23
			c-0.31,0.11-0.62,0.21-0.93,0.3c-0.19,0.06-0.38,0.12-0.58,0.18c-0.33,0.1-0.67,0.19-1,0.28c-0.43,0.11-0.86,0.21-1.29,0.3
			c-0.48,0.11-0.96,0.2-1.45,0.28c-0.44,0.08-0.88,0.15-1.32,0.2c-0.02,0.01-0.03,0.01-0.04,0.01c-0.4,0.05-0.8,0.09-1.2,0.13
			c-0.15,0.01-0.3,0.03-0.46,0.04h-0.03c-0.36,0.03-0.73,0.05-1.1,0.07h-0.06c-0.47,0.02-0.94,0.03-1.41,0.03h-9.82v21h9.82
			c0.63,0,1.26-0.01,1.89-0.04c0.07,0,0.15,0,0.22-0.01c0.64-0.02,1.27-0.05,1.89-0.1c0.66-0.05,1.32-0.11,1.97-0.18
			c0.6-0.06,1.19-0.14,1.78-0.23c0.09-0.01,0.17-0.02,0.26-0.03c0.54-0.08,1.07-0.17,1.6-0.27c0.18-0.03,0.36-0.06,0.54-0.1
			c0.53-0.1,1.07-0.21,1.6-0.33c0.61-0.13,1.21-0.28,1.81-0.44c0.06-0.01,0.13-0.03,0.21-0.06c0.55-0.14,1.1-0.29,1.64-0.46
			c1.32-0.39,2.62-0.83,3.91-1.33c0.52-0.19,1.02-0.4,1.53-0.62c0.09-0.03,0.18-0.07,0.28-0.11c0.5-0.21,1-0.43,1.49-0.67
			c0.58-0.26,1.15-0.54,1.71-0.83c0.52-0.26,1.04-0.53,1.55-0.81c0.04-0.03,0.08-0.05,0.12-0.07c0.51-0.28,1.03-0.57,1.53-0.88
			c0.08-0.05,0.16-0.09,0.24-0.14c0.5-0.29,0.99-0.6,1.47-0.92c2.56-1.64,4.97-3.51,7.21-5.56c10.98-10.01,17.88-24.47,17.88-40.53
			l0.99-37.67C580.24,307.33,555.26,318.45,556.83,339.45z"/>
	</g>
</g>
<path class="st28" d="M561.73,415.82c-3.55,5.1-9.45,8.44-16.13,8.44c-6.45,0-12.17-3.11-15.75-7.9"/>
<path class="st28" d="M529.38,393.54c3.54-5.17,9.48-8.56,16.22-8.56c7.19,0,13.47,3.86,16.9,9.62"/>
<path class="st29" d="M608.3,326.24c-6.7,0-12.16-4.17-12.16-9.28c0-5.11,5.46-9.28,12.16-9.28c6.71,0,12.16,4.17,12.16,9.28
	C620.46,322.07,615.01,326.24,608.3,326.24z"/>
<path class="st30" d="M624.85,309.23c-4.29-0.62-8.76-0.94-13.22-0.99c3.81,1.06,6.77,3.94,7.08,7.49
	c0.43,4.87-4.23,9.14-10.43,9.14c-6.19,0-10.87-4.27-10.45-9.14c0.29-3.38,2.98-6.14,6.52-7.32c-4.51,0.26-8.97,0.82-13.18,1.68
	c-0.94,1.71,2.18,22.7,11.25,25.44c0.82-1.29,1.94-2.87,2.95-4.27c1.55-2.15,2.91-3.95,2.91-3.95l2.72,3.96l2.96,4.32
	C623.16,332.93,626.05,311.15,624.85,309.23z"/>
<path class="st29" d="M620.46,316.96c0,5.11-5.45,9.28-12.16,9.28c-6.7,0-12.16-4.17-12.16-9.28c0-5.11,5.46-9.28,12.16-9.28
	C615.01,307.68,620.46,311.85,620.46,316.96z"/>
<g>
	<g>
		<path class="st31" d="M501.7,421.96c0.82-0.01,1.63-0.34,2.25-0.98c0.36-0.37,0.61-0.8,0.75-1.26l9.71-0.14l-0.25-17.84l-9.6,0.14
			c-0.04-0.36-0.15-0.71-0.31-1.05c-0.23-0.46-0.55-0.85-0.92-1.15l-7.1-5.68c-0.43-0.31-0.92-0.45-1.4-0.44
			c-0.05,0-0.1,0-0.14,0.01c-0.05,0-0.1,0-0.15,0l-7.2,0.1c-1.31,0.02-2.35,1.1-2.33,2.42c0.02,1.32,1.09,2.37,2.4,2.35l6.37-0.09
			l1.54,2.48l-4.9,0.07l0,0l-13.94,0.2c-1.3,0.02-2.35,1.1-2.33,2.42c0.02,1.31,1.09,2.37,2.4,2.35l13.95-0.2l0.01,0.74l-15.07,0.22
			c-1.3,0.02-2.35,1.1-2.33,2.42c0.02,1.31,1.1,2.37,2.4,2.35l15.07-0.21l0.01,0.72l-13.12,0.19c-1.31,0.02-2.35,1.1-2.33,2.42
			c0.02,1.32,1.09,2.37,2.4,2.35l13.11-0.19l0.01,0.72l-10.95,0.16c-1.31,0.02-2.35,1.1-2.34,2.42c0.02,1.31,1.09,2.37,2.4,2.35
			l10.95-0.16l0,0L501.7,421.96z"/>
		
			<rect x="508.32" y="401.78" transform="matrix(0.9999 -0.014 0.014 0.9999 -5.6828 7.1769)" class="st32" width="5.96" height="17.84"/>
	</g>
	<g>
		<path class="st33" d="M552.59,412.09c-8.45,5.46-18.48,8.63-29.24,8.63h-9.82v-21h9.82c7.76,0,14.91-2.67,20.6-7.15
			C553.53,389.4,561.38,407.13,552.59,412.09z"/>
	</g>
</g>
<rect x="372" y="425.79" class="st16" width="6.19" height="76.2"/>
<g>
	<linearGradient id="SVGID_2_" gradientUnits="userSpaceOnUse" x1="431.3004" y1="500.7312" x2="655.301" y2="501.7312">
		<stop  offset="0" style="stop-color:#FFFFFF"/>
		<stop  offset="0.9949" style="stop-color:#8DCCC9"/>
	</linearGradient>
	<path class="st34" d="M429.66,500.71c0,1.53-1.23,2.76-2.74,2.76c-1.52,0-2.74-1.24-2.74-2.76s1.23-2.76,2.74-2.76
		C428.43,497.95,429.66,499.19,429.66,500.71z"/>
	<linearGradient id="SVGID_3_" gradientUnits="userSpaceOnUse" x1="431.3004" y1="500.673" x2="655.301" y2="501.673">
		<stop  offset="0" style="stop-color:#FFFFFF"/>
		<stop  offset="0.9949" style="stop-color:#8DCCC9"/>
	</linearGradient>
	<path class="st35" d="M442.69,500.71c0,1.53-1.23,2.76-2.74,2.76c-1.52,0-2.74-1.24-2.74-2.76s1.23-2.76,2.74-2.76
		C441.47,497.95,442.69,499.19,442.69,500.71z"/>
	<linearGradient id="SVGID_4_" gradientUnits="userSpaceOnUse" x1="431.3005" y1="500.6148" x2="655.3011" y2="501.6148">
		<stop  offset="0" style="stop-color:#FFFFFF"/>
		<stop  offset="0.9949" style="stop-color:#8DCCC9"/>
	</linearGradient>
	<path class="st36" d="M455.73,500.71c0,1.53-1.23,2.76-2.74,2.76c-1.51,0-2.74-1.24-2.74-2.76s1.23-2.76,2.74-2.76
		C454.5,497.95,455.73,499.19,455.73,500.71z"/>
	<linearGradient id="SVGID_5_" gradientUnits="userSpaceOnUse" x1="431.3006" y1="500.5566" x2="655.3012" y2="501.5566">
		<stop  offset="0" style="stop-color:#FFFFFF"/>
		<stop  offset="0.9949" style="stop-color:#8DCCC9"/>
	</linearGradient>
	<path class="st37" d="M468.76,500.71c0,1.53-1.23,2.76-2.74,2.76c-1.52,0-2.74-1.24-2.74-2.76s1.23-2.76,2.74-2.76
		C467.53,497.95,468.76,499.19,468.76,500.71z"/>
	<linearGradient id="SVGID_6_" gradientUnits="userSpaceOnUse" x1="431.3007" y1="500.4984" x2="655.3013" y2="501.4984">
		<stop  offset="0" style="stop-color:#FFFFFF"/>
		<stop  offset="0.9949" style="stop-color:#8DCCC9"/>
	</linearGradient>
	<path class="st38" d="M481.8,500.71c0,1.53-1.23,2.76-2.74,2.76c-1.52,0-2.74-1.24-2.74-2.76s1.23-2.76,2.74-2.76
		C480.57,497.95,481.8,499.19,481.8,500.71z"/>
	<linearGradient id="SVGID_7_" gradientUnits="userSpaceOnUse" x1="431.3006" y1="500.4402" x2="655.3012" y2="501.4402">
		<stop  offset="0" style="stop-color:#FFFFFF"/>
		<stop  offset="0.9949" style="stop-color:#8DCCC9"/>
	</linearGradient>
	<path class="st39" d="M494.83,500.71c0,1.53-1.23,2.76-2.74,2.76c-1.51,0-2.74-1.24-2.74-2.76s1.23-2.76,2.74-2.76
		C493.6,497.95,494.83,499.19,494.83,500.71z"/>
	<linearGradient id="SVGID_8_" gradientUnits="userSpaceOnUse" x1="431.3022" y1="500.3821" x2="655.302" y2="501.3821">
		<stop  offset="0" style="stop-color:#FFFFFF"/>
		<stop  offset="0.9949" style="stop-color:#8DCCC9"/>
	</linearGradient>
	<path class="st40" d="M507.86,500.71c0,1.53-1.23,2.76-2.74,2.76c-1.51,0-2.74-1.24-2.74-2.76s1.23-2.76,2.74-2.76
		C506.63,497.95,507.86,499.19,507.86,500.71z"/>
	<linearGradient id="SVGID_9_" gradientUnits="userSpaceOnUse" x1="431.302" y1="500.3239" x2="655.3019" y2="501.3239">
		<stop  offset="0" style="stop-color:#FFFFFF"/>
		<stop  offset="0.9949" style="stop-color:#8DCCC9"/>
	</linearGradient>
	<path class="st41" d="M520.9,500.71c0,1.53-1.23,2.76-2.74,2.76c-1.51,0-2.74-1.24-2.74-2.76s1.23-2.76,2.74-2.76
		C519.67,497.95,520.9,499.19,520.9,500.71z"/>
	<linearGradient id="SVGID_10_" gradientUnits="userSpaceOnUse" x1="431.3018" y1="500.2657" x2="655.3024" y2="501.2657">
		<stop  offset="0" style="stop-color:#FFFFFF"/>
		<stop  offset="0.9949" style="stop-color:#8DCCC9"/>
	</linearGradient>
	<path class="st42" d="M533.93,500.71c0,1.53-1.23,2.76-2.74,2.76c-1.52,0-2.74-1.24-2.74-2.76s1.23-2.76,2.74-2.76
		C532.7,497.95,533.93,499.19,533.93,500.71z"/>
	<linearGradient id="SVGID_11_" gradientUnits="userSpaceOnUse" x1="431.3021" y1="500.2075" x2="655.3027" y2="501.2075">
		<stop  offset="0" style="stop-color:#FFFFFF"/>
		<stop  offset="0.9949" style="stop-color:#8DCCC9"/>
	</linearGradient>
	<path class="st43" d="M546.96,500.71c0,1.53-1.23,2.76-2.74,2.76c-1.51,0-2.74-1.24-2.74-2.76s1.23-2.76,2.74-2.76
		C545.73,497.95,546.96,499.19,546.96,500.71z"/>
	<linearGradient id="SVGID_12_" gradientUnits="userSpaceOnUse" x1="431.3023" y1="500.1494" x2="655.3029" y2="501.1494">
		<stop  offset="0" style="stop-color:#FFFFFF"/>
		<stop  offset="0.9949" style="stop-color:#8DCCC9"/>
	</linearGradient>
	<path class="st44" d="M560,500.71c0,1.53-1.23,2.76-2.74,2.76c-1.51,0-2.74-1.24-2.74-2.76s1.23-2.76,2.74-2.76
		C558.77,497.95,560,499.19,560,500.71z"/>
	<linearGradient id="SVGID_13_" gradientUnits="userSpaceOnUse" x1="431.2778" y1="500.091" x2="655.3185" y2="501.0912">
		<stop  offset="0" style="stop-color:#FFFFFF"/>
		<stop  offset="0.9949" style="stop-color:#8DCCC9"/>
	</linearGradient>
	<path class="st45" d="M573.03,500.71c0,1.53-1.23,2.76-2.75,2.76c-1.51,0-2.74-1.24-2.74-2.76s1.23-2.76,2.74-2.76
		C571.8,497.95,573.03,499.19,573.03,500.71z"/>
	<linearGradient id="SVGID_14_" gradientUnits="userSpaceOnUse" x1="431.303" y1="500.033" x2="655.3029" y2="501.033">
		<stop  offset="0" style="stop-color:#FFFFFF"/>
		<stop  offset="0.9949" style="stop-color:#8DCCC9"/>
	</linearGradient>
	<path class="st46" d="M586.06,500.71c0,1.53-1.23,2.76-2.74,2.76c-1.51,0-2.74-1.24-2.74-2.76s1.23-2.76,2.74-2.76
		C584.83,497.95,586.06,499.19,586.06,500.71z"/>
	<linearGradient id="SVGID_15_" gradientUnits="userSpaceOnUse" x1="431.304" y1="499.9748" x2="655.3039" y2="500.9748">
		<stop  offset="0" style="stop-color:#FFFFFF"/>
		<stop  offset="0.9949" style="stop-color:#8DCCC9"/>
	</linearGradient>
	<path class="st47" d="M599.1,500.71c0,1.53-1.23,2.76-2.74,2.76c-1.51,0-2.74-1.24-2.74-2.76s1.23-2.76,2.74-2.76
		C597.87,497.95,599.1,499.19,599.1,500.71z"/>
	<linearGradient id="SVGID_16_" gradientUnits="userSpaceOnUse" x1="431.3044" y1="499.9166" x2="655.3043" y2="500.9166">
		<stop  offset="0" style="stop-color:#FFFFFF"/>
		<stop  offset="0.9949" style="stop-color:#8DCCC9"/>
	</linearGradient>
	<path class="st48" d="M612.13,500.71c0,1.53-1.23,2.76-2.74,2.76c-1.51,0-2.74-1.24-2.74-2.76s1.23-2.76,2.74-2.76
		C610.9,497.95,612.13,499.19,612.13,500.71z"/>
	<linearGradient id="SVGID_17_" gradientUnits="userSpaceOnUse" x1="431.3043" y1="499.8584" x2="655.3041" y2="500.8584">
		<stop  offset="0" style="stop-color:#FFFFFF"/>
		<stop  offset="0.9949" style="stop-color:#8DCCC9"/>
	</linearGradient>
	<path class="st49" d="M625.16,500.71c0,1.53-1.23,2.76-2.74,2.76c-1.51,0-2.74-1.24-2.74-2.76s1.23-2.76,2.74-2.76
		C623.94,497.95,625.16,499.19,625.16,500.71z"/>
	<linearGradient id="SVGID_18_" gradientUnits="userSpaceOnUse" x1="431.3047" y1="499.8002" x2="655.3046" y2="500.8002">
		<stop  offset="0" style="stop-color:#FFFFFF"/>
		<stop  offset="0.9949" style="stop-color:#8DCCC9"/>
	</linearGradient>
	<path class="st50" d="M638.2,500.71c0,1.53-1.23,2.76-2.74,2.76c-1.51,0-2.74-1.24-2.74-2.76s1.23-2.76,2.74-2.76
		C636.97,497.95,638.2,499.19,638.2,500.71z"/>
	<linearGradient id="SVGID_19_" gradientUnits="userSpaceOnUse" x1="431.2379" y1="514.6763" x2="655.2378" y2="515.6763">
		<stop  offset="0" style="stop-color:#FFFFFF"/>
		<stop  offset="0.9949" style="stop-color:#8DCCC9"/>
	</linearGradient>
	<path class="st51" d="M442.76,514.72c0,1.53-1.23,2.76-2.74,2.76c-1.52,0-2.74-1.24-2.74-2.76c0-1.53,1.23-2.76,2.74-2.76
		C441.53,511.95,442.76,513.19,442.76,514.72z"/>
	<linearGradient id="SVGID_20_" gradientUnits="userSpaceOnUse" x1="431.238" y1="514.6182" x2="655.2379" y2="515.6182">
		<stop  offset="0" style="stop-color:#FFFFFF"/>
		<stop  offset="0.9949" style="stop-color:#8DCCC9"/>
	</linearGradient>
	<path class="st52" d="M455.79,514.72c0,1.53-1.23,2.76-2.74,2.76c-1.52,0-2.74-1.24-2.74-2.76c0-1.53,1.23-2.76,2.74-2.76
		C454.57,511.95,455.79,513.19,455.79,514.72z"/>
	<linearGradient id="SVGID_21_" gradientUnits="userSpaceOnUse" x1="431.2381" y1="514.5599" x2="655.2387" y2="515.5599">
		<stop  offset="0" style="stop-color:#FFFFFF"/>
		<stop  offset="0.9949" style="stop-color:#8DCCC9"/>
	</linearGradient>
	<path class="st53" d="M468.83,514.72c0,1.53-1.23,2.76-2.74,2.76c-1.52,0-2.74-1.24-2.74-2.76c0-1.53,1.23-2.76,2.74-2.76
		C467.6,511.95,468.83,513.19,468.83,514.72z"/>
	<linearGradient id="SVGID_22_" gradientUnits="userSpaceOnUse" x1="431.2382" y1="514.5018" x2="655.2388" y2="515.5018">
		<stop  offset="0" style="stop-color:#FFFFFF"/>
		<stop  offset="0.9949" style="stop-color:#8DCCC9"/>
	</linearGradient>
	<path class="st54" d="M481.86,514.72c0,1.53-1.23,2.76-2.74,2.76c-1.52,0-2.75-1.24-2.75-2.76c0-1.53,1.23-2.76,2.75-2.76
		C480.63,511.95,481.86,513.19,481.86,514.72z"/>
	<linearGradient id="SVGID_23_" gradientUnits="userSpaceOnUse" x1="431.2381" y1="514.4436" x2="655.2387" y2="515.4436">
		<stop  offset="0" style="stop-color:#FFFFFF"/>
		<stop  offset="0.9949" style="stop-color:#8DCCC9"/>
	</linearGradient>
	<path class="st55" d="M494.89,514.72c0,1.53-1.23,2.76-2.74,2.76c-1.52,0-2.75-1.24-2.75-2.76c0-1.53,1.23-2.76,2.75-2.76
		C493.67,511.95,494.89,513.19,494.89,514.72z"/>
	<linearGradient id="SVGID_24_" gradientUnits="userSpaceOnUse" x1="431.2397" y1="514.3854" x2="655.2396" y2="515.3854">
		<stop  offset="0" style="stop-color:#FFFFFF"/>
		<stop  offset="0.9949" style="stop-color:#8DCCC9"/>
	</linearGradient>
	<path class="st56" d="M507.93,514.72c0,1.53-1.23,2.76-2.74,2.76c-1.52,0-2.74-1.24-2.74-2.76c0-1.53,1.23-2.76,2.74-2.76
		C506.7,511.95,507.93,513.19,507.93,514.72z"/>
	<linearGradient id="SVGID_25_" gradientUnits="userSpaceOnUse" x1="431.2396" y1="514.3272" x2="655.2394" y2="515.3272">
		<stop  offset="0" style="stop-color:#FFFFFF"/>
		<stop  offset="0.9949" style="stop-color:#8DCCC9"/>
	</linearGradient>
	<path class="st57" d="M520.96,514.72c0,1.53-1.23,2.76-2.74,2.76c-1.52,0-2.74-1.24-2.74-2.76c0-1.53,1.23-2.76,2.74-2.76
		C519.73,511.95,520.96,513.19,520.96,514.72z"/>
	<linearGradient id="SVGID_26_" gradientUnits="userSpaceOnUse" x1="431.2393" y1="514.269" x2="655.2399" y2="515.269">
		<stop  offset="0" style="stop-color:#FFFFFF"/>
		<stop  offset="0.9949" style="stop-color:#8DCCC9"/>
	</linearGradient>
	<path class="st58" d="M533.99,514.72c0,1.53-1.23,2.76-2.74,2.76c-1.52,0-2.74-1.24-2.74-2.76c0-1.53,1.23-2.76,2.74-2.76
		C532.77,511.95,533.99,513.19,533.99,514.72z"/>
	<linearGradient id="SVGID_27_" gradientUnits="userSpaceOnUse" x1="431.2396" y1="514.2108" x2="655.2402" y2="515.2109">
		<stop  offset="0" style="stop-color:#FFFFFF"/>
		<stop  offset="0.9949" style="stop-color:#8DCCC9"/>
	</linearGradient>
	<path class="st59" d="M547.03,514.72c0,1.53-1.23,2.76-2.74,2.76c-1.52,0-2.75-1.24-2.75-2.76c0-1.53,1.23-2.76,2.75-2.76
		C545.8,511.95,547.03,513.19,547.03,514.72z"/>
	<linearGradient id="SVGID_28_" gradientUnits="userSpaceOnUse" x1="431.2398" y1="514.1526" x2="655.2405" y2="515.1526">
		<stop  offset="0" style="stop-color:#FFFFFF"/>
		<stop  offset="0.9949" style="stop-color:#8DCCC9"/>
	</linearGradient>
	<path class="st60" d="M560.06,514.72c0,1.53-1.23,2.76-2.74,2.76c-1.52,0-2.75-1.24-2.75-2.76c0-1.53,1.23-2.76,2.75-2.76
		C558.83,511.95,560.06,513.19,560.06,514.72z"/>
	<linearGradient id="SVGID_29_" gradientUnits="userSpaceOnUse" x1="431.2389" y1="514.0945" x2="655.2408" y2="515.0945">
		<stop  offset="0" style="stop-color:#FFFFFF"/>
		<stop  offset="0.9949" style="stop-color:#8DCCC9"/>
	</linearGradient>
	<path class="st61" d="M573.1,514.72c0,1.53-1.23,2.76-2.74,2.76c-1.52,0-2.75-1.24-2.75-2.76c0-1.53,1.23-2.76,2.75-2.76
		C571.87,511.95,573.1,513.19,573.1,514.72z"/>
	<linearGradient id="SVGID_30_" gradientUnits="userSpaceOnUse" x1="431.2389" y1="514.0363" x2="655.2408" y2="515.0363">
		<stop  offset="0" style="stop-color:#FFFFFF"/>
		<stop  offset="0.9949" style="stop-color:#8DCCC9"/>
	</linearGradient>
	<path class="st62" d="M586.13,514.72c0,1.53-1.23,2.76-2.74,2.76c-1.52,0-2.75-1.24-2.75-2.76c0-1.53,1.23-2.76,2.75-2.76
		C584.9,511.95,586.13,513.19,586.13,514.72z"/>
	<linearGradient id="SVGID_31_" gradientUnits="userSpaceOnUse" x1="431.2109" y1="513.978" x2="655.2516" y2="514.9781">
		<stop  offset="0" style="stop-color:#FFFFFF"/>
		<stop  offset="0.9949" style="stop-color:#8DCCC9"/>
	</linearGradient>
	<path class="st63" d="M599.16,514.72c0,1.53-1.23,2.76-2.74,2.76c-1.52,0-2.74-1.24-2.74-2.76c0-1.53,1.23-2.76,2.74-2.76
		C597.93,511.95,599.16,513.19,599.16,514.72z"/>
	<linearGradient id="SVGID_32_" gradientUnits="userSpaceOnUse" x1="431.2408" y1="513.9199" x2="655.2414" y2="514.9199">
		<stop  offset="0" style="stop-color:#FFFFFF"/>
		<stop  offset="0.9949" style="stop-color:#8DCCC9"/>
	</linearGradient>
	<path class="st64" d="M612.19,514.72c0,1.53-1.23,2.76-2.74,2.76c-1.52,0-2.74-1.24-2.74-2.76c0-1.53,1.23-2.76,2.74-2.76
		C610.97,511.95,612.19,513.19,612.19,514.72z"/>
	<linearGradient id="SVGID_33_" gradientUnits="userSpaceOnUse" x1="431.241" y1="513.8618" x2="655.2416" y2="514.8618">
		<stop  offset="0" style="stop-color:#FFFFFF"/>
		<stop  offset="0.9949" style="stop-color:#8DCCC9"/>
	</linearGradient>
	<path class="st65" d="M625.23,514.72c0,1.53-1.23,2.76-2.74,2.76c-1.52,0-2.75-1.24-2.75-2.76c0-1.53,1.23-2.76,2.75-2.76
		C624,511.95,625.23,513.19,625.23,514.72z"/>
	<linearGradient id="SVGID_34_" gradientUnits="userSpaceOnUse" x1="431.2403" y1="513.8035" x2="655.2422" y2="514.8036">
		<stop  offset="0" style="stop-color:#FFFFFF"/>
		<stop  offset="0.9949" style="stop-color:#8DCCC9"/>
	</linearGradient>
	<path class="st66" d="M638.26,514.72c0,1.53-1.23,2.76-2.74,2.76c-1.52,0-2.75-1.24-2.75-2.76c0-1.53,1.23-2.76,2.75-2.76
		C637.03,511.95,638.26,513.19,638.26,514.72z"/>
	<linearGradient id="SVGID_35_" gradientUnits="userSpaceOnUse" x1="431.2403" y1="513.7454" x2="655.2422" y2="514.7454">
		<stop  offset="0" style="stop-color:#FFFFFF"/>
		<stop  offset="0.9949" style="stop-color:#8DCCC9"/>
	</linearGradient>
	<path class="st67" d="M651.3,514.72c0,1.53-1.23,2.76-2.74,2.76c-1.52,0-2.75-1.24-2.75-2.76c0-1.53,1.23-2.76,2.75-2.76
		C650.07,511.95,651.3,513.19,651.3,514.72z"/>
	<linearGradient id="SVGID_36_" gradientUnits="userSpaceOnUse" x1="431.1776" y1="528.1733" x2="655.1774" y2="529.1733">
		<stop  offset="0" style="stop-color:#FFFFFF"/>
		<stop  offset="0.9949" style="stop-color:#8DCCC9"/>
	</linearGradient>
	<path class="st68" d="M460.21,528.29c0,1.53-1.23,2.76-2.74,2.76c-1.52,0-2.74-1.24-2.74-2.76c0-1.53,1.23-2.76,2.74-2.76
		C458.98,525.53,460.21,526.76,460.21,528.29z"/>
	<linearGradient id="SVGID_37_" gradientUnits="userSpaceOnUse" x1="431.1777" y1="528.1152" x2="655.1776" y2="529.1152">
		<stop  offset="0" style="stop-color:#FFFFFF"/>
		<stop  offset="0.9949" style="stop-color:#8DCCC9"/>
	</linearGradient>
	<path class="st69" d="M473.24,528.29c0,1.53-1.23,2.76-2.74,2.76c-1.52,0-2.74-1.24-2.74-2.76c0-1.53,1.23-2.76,2.74-2.76
		C472.01,525.53,473.24,526.76,473.24,528.29z"/>
	<linearGradient id="SVGID_38_" gradientUnits="userSpaceOnUse" x1="431.1781" y1="528.057" x2="655.1772" y2="529.057">
		<stop  offset="0" style="stop-color:#FFFFFF"/>
		<stop  offset="0.9949" style="stop-color:#8DCCC9"/>
	</linearGradient>
	<path class="st70" d="M486.27,528.29c0,1.53-1.23,2.76-2.74,2.76c-1.52,0-2.74-1.24-2.74-2.76c0-1.53,1.23-2.76,2.74-2.76
		C485.05,525.53,486.27,526.76,486.27,528.29z"/>
	<linearGradient id="SVGID_39_" gradientUnits="userSpaceOnUse" x1="431.1781" y1="527.9988" x2="655.1779" y2="528.9988">
		<stop  offset="0" style="stop-color:#FFFFFF"/>
		<stop  offset="0.9949" style="stop-color:#8DCCC9"/>
	</linearGradient>
	<path class="st71" d="M499.31,528.29c0,1.53-1.23,2.76-2.74,2.76c-1.52,0-2.74-1.24-2.74-2.76c0-1.53,1.23-2.76,2.74-2.76
		C498.08,525.53,499.31,526.76,499.31,528.29z"/>
	<linearGradient id="SVGID_40_" gradientUnits="userSpaceOnUse" x1="431.179" y1="527.9406" x2="655.1789" y2="528.9406">
		<stop  offset="0" style="stop-color:#FFFFFF"/>
		<stop  offset="0.9949" style="stop-color:#8DCCC9"/>
	</linearGradient>
	<path class="st72" d="M512.34,528.29c0,1.53-1.23,2.76-2.74,2.76s-2.74-1.24-2.74-2.76c0-1.53,1.23-2.76,2.74-2.76
		S512.34,526.76,512.34,528.29z"/>
	<linearGradient id="SVGID_41_" gradientUnits="userSpaceOnUse" x1="431.1795" y1="527.8824" x2="655.1793" y2="528.8824">
		<stop  offset="0" style="stop-color:#FFFFFF"/>
		<stop  offset="0.9949" style="stop-color:#8DCCC9"/>
	</linearGradient>
	<path class="st73" d="M525.37,528.29c0,1.53-1.23,2.76-2.74,2.76c-1.52,0-2.74-1.24-2.74-2.76c0-1.53,1.23-2.76,2.74-2.76
		C524.15,525.53,525.37,526.76,525.37,528.29z"/>
	<linearGradient id="SVGID_42_" gradientUnits="userSpaceOnUse" x1="431.179" y1="527.8243" x2="655.1796" y2="528.8243">
		<stop  offset="0" style="stop-color:#FFFFFF"/>
		<stop  offset="0.9949" style="stop-color:#8DCCC9"/>
	</linearGradient>
	<path class="st74" d="M538.41,528.29c0,1.53-1.23,2.76-2.74,2.76c-1.52,0-2.74-1.24-2.74-2.76c0-1.53,1.23-2.76,2.74-2.76
		C537.18,525.53,538.41,526.76,538.41,528.29z"/>
	<linearGradient id="SVGID_43_" gradientUnits="userSpaceOnUse" x1="431.1797" y1="527.7661" x2="655.1796" y2="528.7661">
		<stop  offset="0" style="stop-color:#FFFFFF"/>
		<stop  offset="0.9949" style="stop-color:#8DCCC9"/>
	</linearGradient>
	<path class="st75" d="M551.44,528.29c0,1.53-1.23,2.76-2.74,2.76c-1.52,0-2.74-1.24-2.74-2.76c0-1.53,1.23-2.76,2.74-2.76
		C550.21,525.53,551.44,526.76,551.44,528.29z"/>
	<linearGradient id="SVGID_44_" gradientUnits="userSpaceOnUse" x1="431.1796" y1="527.7079" x2="655.1794" y2="528.7079">
		<stop  offset="0" style="stop-color:#FFFFFF"/>
		<stop  offset="0.9949" style="stop-color:#8DCCC9"/>
	</linearGradient>
	<path class="st76" d="M564.47,528.29c0,1.53-1.23,2.76-2.74,2.76c-1.52,0-2.74-1.24-2.74-2.76c0-1.53,1.23-2.76,2.74-2.76
		C563.25,525.53,564.47,526.76,564.47,528.29z"/>
	<linearGradient id="SVGID_45_" gradientUnits="userSpaceOnUse" x1="431.1801" y1="527.6497" x2="655.1799" y2="528.6497">
		<stop  offset="0" style="stop-color:#FFFFFF"/>
		<stop  offset="0.9949" style="stop-color:#8DCCC9"/>
	</linearGradient>
	<path class="st77" d="M577.51,528.29c0,1.53-1.23,2.76-2.74,2.76c-1.52,0-2.74-1.24-2.74-2.76c0-1.53,1.23-2.76,2.74-2.76
		C576.28,525.53,577.51,526.76,577.51,528.29z"/>
	<linearGradient id="SVGID_46_" gradientUnits="userSpaceOnUse" x1="431.1805" y1="527.5916" x2="655.1796" y2="528.5915">
		<stop  offset="0" style="stop-color:#FFFFFF"/>
		<stop  offset="0.9949" style="stop-color:#8DCCC9"/>
	</linearGradient>
	<path class="st78" d="M590.54,528.29c0,1.53-1.23,2.76-2.74,2.76c-1.52,0-2.74-1.24-2.74-2.76c0-1.53,1.23-2.76,2.74-2.76
		C589.31,525.53,590.54,526.76,590.54,528.29z"/>
	<linearGradient id="SVGID_47_" gradientUnits="userSpaceOnUse" x1="431.1506" y1="527.5332" x2="655.1906" y2="528.5334">
		<stop  offset="0" style="stop-color:#FFFFFF"/>
		<stop  offset="0.9949" style="stop-color:#8DCCC9"/>
	</linearGradient>
	<path class="st79" d="M603.57,528.29c0,1.53-1.23,2.76-2.74,2.76c-1.52,0-2.74-1.24-2.74-2.76c0-1.53,1.23-2.76,2.74-2.76
		C602.35,525.53,603.57,526.76,603.57,528.29z"/>
	<linearGradient id="SVGID_48_" gradientUnits="userSpaceOnUse" x1="431.1813" y1="527.4752" x2="655.1812" y2="528.4752">
		<stop  offset="0" style="stop-color:#FFFFFF"/>
		<stop  offset="0.9949" style="stop-color:#8DCCC9"/>
	</linearGradient>
	<path class="st80" d="M616.61,528.29c0,1.53-1.23,2.76-2.74,2.76c-1.51,0-2.74-1.24-2.74-2.76c0-1.53,1.23-2.76,2.74-2.76
		C615.38,525.53,616.61,526.76,616.61,528.29z"/>
	<linearGradient id="SVGID_49_" gradientUnits="userSpaceOnUse" x1="431.2173" y1="527.4171" x2="655.1764" y2="528.4169">
		<stop  offset="0" style="stop-color:#FFFFFF"/>
		<stop  offset="0.9949" style="stop-color:#8DCCC9"/>
	</linearGradient>
	<path class="st81" d="M629.64,528.29c0,1.53-1.23,2.76-2.74,2.76c-1.51,0-2.74-1.24-2.74-2.76c0-1.53,1.23-2.76,2.74-2.76
		C628.41,525.53,629.64,526.76,629.64,528.29z"/>
	<linearGradient id="SVGID_50_" gradientUnits="userSpaceOnUse" x1="431.1808" y1="527.3588" x2="655.1815" y2="528.3588">
		<stop  offset="0" style="stop-color:#FFFFFF"/>
		<stop  offset="0.9949" style="stop-color:#8DCCC9"/>
	</linearGradient>
	<path class="st82" d="M642.68,528.29c0,1.53-1.23,2.76-2.74,2.76c-1.52,0-2.74-1.24-2.74-2.76c0-1.53,1.23-2.76,2.74-2.76
		C641.45,525.53,642.68,526.76,642.68,528.29z"/>
	<linearGradient id="SVGID_51_" gradientUnits="userSpaceOnUse" x1="431.1814" y1="527.3006" x2="655.1813" y2="528.3006">
		<stop  offset="0" style="stop-color:#FFFFFF"/>
		<stop  offset="0.9949" style="stop-color:#8DCCC9"/>
	</linearGradient>
	<path class="st83" d="M655.71,528.29c0,1.53-1.23,2.76-2.74,2.76c-1.51,0-2.74-1.24-2.74-2.76c0-1.53,1.23-2.76,2.74-2.76
		C654.48,525.53,655.71,526.76,655.71,528.29z"/>
	<linearGradient id="SVGID_52_" gradientUnits="userSpaceOnUse" x1="431.1818" y1="527.2424" x2="655.1817" y2="528.2424">
		<stop  offset="0" style="stop-color:#FFFFFF"/>
		<stop  offset="0.9949" style="stop-color:#8DCCC9"/>
	</linearGradient>
	<path class="st84" d="M668.74,528.29c0,1.53-1.23,2.76-2.74,2.76c-1.51,0-2.74-1.24-2.74-2.76c0-1.53,1.23-2.76,2.74-2.76
		C667.51,525.53,668.74,526.76,668.74,528.29z"/>
</g>
<g>
	<path class="st15" d="M638.89,274.35c0,4.15-3.34,7.52-7.47,7.52c-4.12,0-7.47-3.37-7.47-7.52c0-4.15,3.34-7.52,7.47-7.52
		C635.55,266.83,638.89,270.2,638.89,274.35z"/>
	<path class="st15" d="M592.27,274.35c0,4.15-3.34,7.52-7.47,7.52c-4.12,0-7.47-3.37-7.47-7.52c0-4.15,3.35-7.52,7.47-7.52
		C588.92,266.83,592.27,270.2,592.27,274.35z"/>
	<path class="st15" d="M585.82,230.61c-0.13,0.11-0.26,0.22-0.38,0.34c-1.69,1.71-2.74,3.83-3.13,6.05v56.83
		c0,2.87,0.64,5.79,2.01,8.49c1.37,2.7,3.3,4.87,5.55,6.44l8.63,6.04c2.96,2.08,6.5,3.29,10.32,3.29c3.81,0,7.34-1.21,10.32-3.29
		l8.82-6.17c2.19-1.53,4.07-3.65,5.4-6.28c0.91-1.81,1.5-3.72,1.77-5.65v-64.89c0-0.41-0.08-0.81-0.19-1.2H585.82z"/>
	<path class="st85" d="M636.25,231.57c-6.18-6.25-11.44-5.17-13.15-4.58c0,0,0,0-0.01,0c-3.18-3.4-22.26-8.65-34.63-1.16
		c-26.43,16.02-6.34,44.42-6.34,44.42v-15.43c0-1.52,0.13-3,0.37-4.45c4.8,2.18,10.57,3.46,16.78,3.46
		c14.51,0,26.63-6.95,29.6-16.22c2.51,3,6.42,7.26,6.25,31.88C643.79,261.86,643.82,239.2,636.25,231.57z"/>
</g>
<g>
	<g>
		<path class="st10" d="M435.67,462.35c-0.82-0.01-1.63-0.34-2.25-0.98c-0.36-0.37-0.6-0.8-0.75-1.26l-9.71-0.14l0.25-17.84
			l9.6,0.14c0.04-0.36,0.15-0.71,0.31-1.05c0.23-0.46,0.55-0.85,0.92-1.16l7.1-5.68c0.43-0.31,0.92-0.45,1.4-0.44
			c0.05,0,0.1,0,0.15,0.01c0.05,0,0.1,0,0.15,0l7.2,0.1c1.31,0.02,2.35,1.1,2.33,2.42c-0.02,1.32-1.09,2.37-2.4,2.35l-6.37-0.09
			l-1.54,2.48l4.9,0.07l0,0l13.94,0.2c1.3,0.02,2.35,1.1,2.33,2.42c-0.02,1.31-1.09,2.37-2.4,2.35l-13.95-0.2l-0.01,0.74l15.07,0.22
			c1.3,0.02,2.35,1.1,2.33,2.42c-0.02,1.31-1.09,2.36-2.4,2.35l-15.07-0.21l-0.01,0.72l13.12,0.19c1.31,0.02,2.35,1.1,2.33,2.42
			c-0.02,1.32-1.09,2.37-2.4,2.35l-13.11-0.19l-0.01,0.72l10.95,0.16c1.31,0.01,2.35,1.1,2.34,2.42c-0.02,1.31-1.09,2.37-2.4,2.35
			l-10.95-0.16l0,0L435.67,462.35z"/>
		<polygon class="st32" points="429.18,442.22 429.14,444.83 428.93,460.06 423,459.97 422.96,459.97 423.21,442.13 		"/>
		<polygon class="st86" points="429.14,444.83 428.93,460.06 423,459.97 423.21,444.75 		"/>
	</g>
	<path class="st16" d="M414.02,440.11c-18.46,0-33.48-15.13-33.48-33.72V359c0-3.98-0.55-15.98-12.8-15.98
		c-5.8,0-8.06,4.73-8.06,10.57v0l0,0v52.8c0,30.17,24.37,54.72,54.33,54.72h9.82v-21H414.02z"/>
	<path class="st12" d="M378.23,431.95v25.51c-16.8-9.32-28.21-27.33-28.21-47.97v-43.8c0-5.84,4.7-10.58,10.5-10.58
		c5.79,0,10.49,4.74,10.49,10.58c0,0.55-0.05-7.9-0.14-7.37v51.17C370.87,417.45,373.62,425.43,378.23,431.95z"/>
	<path class="st18" d="M410.67,443.67c-18.46,0-33.48-18.68-33.48-37.27v-51.17c0-8.23-4.56-12.21-10.36-12.21
		c-5.8,0-10.5,4.73-10.5,10.57v0l0,0v52.8c0,30.17,24.37,54.72,54.33,54.72h13.18v-17.45H410.67z"/>
</g>
<path class="st87" d="M202.24,413.76c0,2.41-1.95,4.36-4.36,4.36l0,0c-2.4,0-4.35-1.95-4.35-4.36V306.35c0-2.41,1.95-4.35,4.35-4.35
	l0,0c2.41,0,4.36,1.95,4.36,4.35V413.76z"/>
<path class="st16" d="M372.67,281.17l3.94,9.02c0.2,0.45,0.21,0.98,0,1.47c-0.21,0.49-0.61,0.83-1.08,0.99l-4.46,1.53L372.67,281.17
	z"/>
<path class="st87" d="M745.49,360.05c0,6.58-5.34,11.92-11.92,11.92c-6.58,0-11.92-5.34-11.92-11.92c0-6.58,5.33-11.92,11.92-11.92
	C740.15,348.14,745.49,353.47,745.49,360.05z"/>
<g>
	<circle class="st88" cx="595.74" cy="273.01" r="2.75"/>
	<circle class="st88" cx="619.57" cy="273.01" r="2.75"/>
	<path class="st89" d="M617.82,293.55c-0.87,2.74-4.65,4.81-9.18,4.81c-4.29,0-7.92-1.86-9.02-4.39"/>
</g>
<rect x="638.26" y="356" class="st24" width="14.71" height="113"/>
<path class="st90" d="M663.25,461.74c0,4.19-3.4,7.6-7.6,7.6l0,0c-4.2,0-7.6-3.4-7.6-7.6v-18.39c0-4.2,3.4-7.6,7.6-7.6l0,0
	c4.2,0,7.6,3.4,7.6,7.6V461.74z"/>
<path class="st25" d="M663.25,440.33V330.54c0-5.52-4.48-10-10-10h-0.58c-5.52,0-10,4.48-10,10v109.79H663.25z"/>
<rect x="642.68" y="440.33" class="st91" width="20.58" height="7.97"/>
<path class="st25" d="M638.89,312.83c0,0,19.22,6.63,22.62,12.07c-12.6,3.44-22.62,1.34-22.62,1.34V312.83z"/>
<polygon class="st92" points="644.38,548.04 476.38,548.04 381.91,172.07 549.9,172.07 "/>
</svg>
