<?xml version="1.0" encoding="utf-8"?>
<!-- Generator: Adobe Illustrator 23.0.1, SVG Export Plug-In . SVG Version: 6.00 Build 0)  -->
<svg version="1.1" id="Camada_1" xmlns="http://www.w3.org/2000/svg" xmlns:xlink="http://www.w3.org/1999/xlink" x="0px" y="0px"
	 viewBox="0 0 1194 874" style="enable-background:new 0 0 1194 874;" xml:space="preserve">
<style type="text/css">
	.st0{fill:#FFFFFF;}
	.st1{font-family:'Futura-Medium';}
	.st2{font-size:18px;}
	.st3{letter-spacing:1;}
	.st4{fill-rule:evenodd;clip-rule:evenodd;fill:#FFFFFF;}
</style>
<g>
	<g>
		<text transform="matrix(1 0 0 1 414.02 459.5637)" class="st0 st1 st2 st3">connect</text>
		<text transform="matrix(1 0 0 1 540.4032 459.5637)" class="st0 st1 st2 st3">inspire</text>
		<text transform="matrix(1 0 0 1 651.7295 459.5637)" class="st0 st1 st2 st3">develop</text>
	</g>
	<path class="st4" d="M696.11,365.96l-6.18,31.63c-0.53,2.84-0.88,5.76-0.88,8.25c0,12.46,7.51,19.08,20.85,18.99
		c17.76,0,25.27-9.02,28.72-26.64l6.27-32.23h-15.11l-6.45,33c-1.85,9.8-5.57,13.66-11.66,13.66c-5.21,0-7.51-3.52-7.6-7.05
		c0-2.58,0.26-4.9,0.62-6.7l6.45-32.91H696.11L696.11,365.96z M654.58,412.62c-7.42,0-10.96-4.98-10.96-12.55
		c0-6.53,2.47-14.95,6.71-19.16c2.39-2.32,5.39-3.69,8.84-3.69c7.78,0,10.43,5.76,10.43,12.55c0,6.1-2.3,15.13-6.63,19.33
		c-2.21,2.15-5.21,3.52-8.31,3.52H654.58L654.58,412.62z M652.46,424.83c9.19,0,16.97-3.09,22.71-8.42
		c6.72-6.36,10.52-16.33,10.52-26.98c0-14.52-9.1-24.41-24.74-24.41c-9.01,0-16.79,3.09-22.53,8.42
		c-6.89,6.45-10.87,16.41-10.87,26.98c0,14.01,9.37,24.4,24.83,24.4H652.46L652.46,424.83z M606.77,423.88h-15.11l4.6-23.37
		l-11.75-34.55h16.17l2.92,12.98c0.97,4.73,1.59,7.56,2.21,10.83h0.18c1.94-3.44,3.62-6.62,5.92-10.83l7.33-12.98h18.03
		l-25.89,34.12L606.77,423.88L606.77,423.88z M573.11,423.88l2.39-12.46h-19.09v-0.17l6.1-4.12c8.48-6.02,17.14-12.89,17.14-24.06
		c0-9.54-7.25-15.99-19.18-15.99c-7.07,0-14.05,2.06-18.91,4.73l2.83,10.57c3.27-1.89,7.25-3.01,12.37-3.01
		c4.42,0,7.42,2.15,7.42,6.02c0,5.67-6.63,11.26-16.44,18.82l-14.05,10.31l-1.77,9.37H573.11z"/>
	<path class="st4" d="M502.77,369.57c1.5-0.52,3.98-0.77,7.16-0.77c7.95,0,13.61,3.27,13.61,11.09c0,9.62-7.77,16.5-19.35,16.5
		c-2.12,0-3.98-0.09-6.54-0.6L502.77,369.57L502.77,369.57z M488.19,423.88h3.98l4.86-24.66c2.21,0.43,4.24,0.52,6.54,0.52
		c6.36,0,12.99-1.8,17.5-5.67c3.36-2.92,6.54-8.34,6.54-14.35c0-3.95-0.97-6.87-3-9.37c-2.74-3.18-7.87-4.81-13.87-4.81
		c-4.24,0-8.22,0.43-11.31,1.12L488.19,423.88L488.19,423.88z M457.26,421.48c-13.43,0-18.03-10.31-18.03-20.54
		c0-8.77,3.71-19.68,9.99-25.87c4.24-4.12,9.63-6.7,15.73-6.7c15.29,0,18.12,11.6,18.12,20.37c0,8.94-3.62,19.94-9.81,25.95
		c-4.42,4.3-9.99,6.79-15.91,6.79H457.26L457.26,421.48z M456.82,424.83c7.69,0,14.31-2.92,19.35-7.9
		c7.25-7.13,11.05-18.65,11.05-28.45c0-11.51-5.39-23.46-21.65-23.46c-6.8,0-14.05,2.92-18.91,7.56
		c-7.33,7.13-11.58,18.99-11.58,29.05c0,11.6,6.27,23.2,21.65,23.2H456.82L456.82,424.83z M408.4,423.88h3.98l10.69-54.57h18.38
		l0.71-3.35h-40.82l-0.71,3.35h18.47L408.4,423.88z"/>
	<path class="st4" d="M764.94,381.81c-2.06,0.02-15.43,0.45-20.84,7.73l1.84-8.35l0.02,0l2.13-9.51v0l3.05-14.97
		c0.42-2.06,1.66-3.93,3.3-5.28c1.66-1.35,3.75-2.19,5.87-2.19h26.31c0.5,0,0.99,0.05,1.48,0.15c1.58,0.3,2.9,1.11,3.83,2.23
		c0.92,1.12,1.45,2.56,1.45,4.15c0,0.49-0.05,1-0.16,1.52l-3.48,17.05c-0.43,2.07-1.66,3.94-3.31,5.28
		c-1.65,1.35-3.74,2.19-5.87,2.19h-15.35h-0.01h-0.03h-0.06h-0.07H764.94L764.94,381.81z M749.08,381.89
		c4.98-2.27,10.93-3.18,15.86-3.24h15.62c1.38,0,2.75-0.6,3.8-1.46c1.08-0.88,1.93-2.12,2.21-3.48l3.48-17.05
		c0.06-0.29,0.09-0.6,0.09-0.9c0-0.79-0.23-1.55-0.74-2.17c-0.49-0.6-1.18-0.97-1.95-1.12c-0.28-0.05-0.57-0.09-0.86-0.09h-26.31
		c-1.38,0-2.75,0.6-3.8,1.46c-1.08,0.88-1.93,2.12-2.21,3.47l-3.07,15.02L749.08,381.89z"/>
	<rect x="400.62" y="434.66" class="st4" width="343.47" height="1.23"/>
</g>
</svg>
